<svg width="120" height="120" viewBox="0 0 120 120" fill="none" xmlns="http://www.w3.org/2000/svg">
<path fill-rule="evenodd" clip-rule="evenodd" d="M60 120C93.1372 120 120 93.1372 120 60C120 26.8628 93.1372 0 60 0C26.8628 0 0 26.8628 0 60C0 93.1372 26.8628 120 60 120ZM99.0693 25.2434C103.372 26.478 106.76 30.1157 107.91 34.7351C110 43.1074 110 60.5759 110 60.5759C110 60.5759 110 78.0439 107.91 86.4167C106.76 91.0359 103.372 94.5222 99.0693 95.7566C91.2705 98 60 98 60 98C60 98 28.7292 98 20.9307 95.7566C16.6282 94.5222 13.2396 91.0359 12.0896 86.4167C10 78.0439 10 60.5759 10 60.5759C10 60.5759 10 43.1074 12.0896 34.7351C13.2396 30.1157 16.6282 26.478 20.9307 25.2434C28.7292 23 60 23 60 23C60 23 91.271 23 99.0693 25.2434ZM49.7727 44.7158V76.4358L75.9089 60.5762L49.7727 44.7158Z" fill="black"/>
</svg>
