<svg width="215" height="35" viewBox="0 0 215 35" fill="none" xmlns="http://www.w3.org/2000/svg">
<path d="M9.85062 17.2157C9.85062 10.1777 13.3696 0 13.3696 0H0V34.4445H13.3696C13.3696 34.4445 9.85062 24.2668 9.85062 17.2288" fill="#004AFF"/>
<path d="M13.3696 17.2157C13.3696 11.512 26.0328 0 26.0328 0H13.3696C13.3696 0 9.85059 10.1777 9.85059 17.2157C9.85059 24.2537 13.3696 34.4314 13.3696 34.4314H26.0328C26.0328 34.4314 13.3696 22.9194 13.3696 17.2157Z" fill="#0099FF"/>
<path d="M17.5951 17.2157C17.5951 12.9772 34.2875 4.02921 42.2151 0H26.0328C26.0328 0 13.3696 11.512 13.3696 17.2157C13.3696 22.9194 26.0328 34.4314 26.0328 34.4314H42.2151C34.2875 30.4022 17.5951 21.4411 17.5951 17.2157Z" fill="#FFD600"/>
<path d="M22.5139 17.2157C22.5139 16.8494 22.5139 13.8537 42.2151 9.24886V0C34.2875 4.02921 17.5951 12.9903 17.5951 17.2157C17.5951 21.4411 34.2875 30.4022 42.2151 34.4314V25.1695C22.5139 20.5777 22.5139 17.582 22.5139 17.2026" fill="#00D9FF"/>
<path d="M42.2151 9.26196C22.5139 13.8668 22.5139 16.8494 22.5139 17.2288C22.5139 17.6082 22.5139 20.5908 42.2151 25.1957V9.26196Z" fill="#A8FFFF"/>
<path d="M66.024 6.22693C65.0167 4.94491 64.0617 3.91145 63.1591 3.11346L65.0952 1.89685C65.9717 2.70792 66.9267 3.7283 67.9601 4.94491C68.9936 6.16153 69.8308 7.24732 70.4587 8.18921L68.4572 9.73287C67.8424 8.67324 67.0182 7.49587 66.0109 6.21385M54.7082 16.5485H67.0967V18.7332H54.7082V16.5485ZM53.5047 10.3346H68.2872V18.7332H65.71V12.5585H56.0949V18.7332H53.5178V10.3477L53.5047 10.3346ZM55.5716 3.61057C56.5397 2.38087 57.2592 1.20351 57.7432 0.0915527L60.3596 0.994199C60.0325 1.83144 59.5747 2.62943 58.9729 3.37509C58.3842 4.12076 57.6909 4.76177 56.8929 5.31121C56.0949 5.86064 55.2446 6.26618 54.3288 6.5409L52.6413 6.71096C53.6355 5.88681 54.6036 4.85334 55.5716 3.62365M67.7116 6.397L68.3787 8.68632H51.7779V6.397H67.7116Z" fill="#141414"/>
<path d="M89.5191 5.78215C89.3621 5.25888 89.2051 4.84026 89.0481 4.5263L90.2909 4.25158C90.4479 4.61787 90.5918 5.06265 90.7618 5.57285C90.9188 6.08304 91.0496 6.52782 91.1412 6.92027L89.8461 7.18191C89.7938 6.76329 89.6891 6.30543 89.5322 5.78215M89.3621 8.64708C89.2574 8.1238 89.1528 7.66594 89.0481 7.29965H90.2386C90.4871 8.05839 90.7226 8.97412 90.9581 10.0599H89.6106C89.5452 9.6413 89.4537 9.17035 89.349 8.64708M87.5437 8.67324C87.5176 8.17613 87.4783 7.71827 87.4391 7.28657H88.6295C88.7734 8.68632 88.8519 9.61513 88.8781 10.0468H87.596C87.596 9.61513 87.5568 9.15727 87.5306 8.66016M87.596 3.98994C88.1193 3.28352 88.6033 2.51169 89.0481 1.67446L90.631 2.04075C90.1601 2.82566 89.6368 3.55824 89.0481 4.26466C88.4594 4.958 87.8969 5.48127 87.3475 5.8214H85.9085C86.5103 5.31121 87.0728 4.69636 87.596 3.98994ZM85.7646 2.93031H89.0874L88.0539 4.13384H85.7646V2.93031ZM87.3082 0.248535L88.9435 0.601745C88.6949 1.11194 88.3679 1.58288 87.9493 2.02767C87.5306 2.47245 87.0728 2.81258 86.5757 3.03497L85.7777 2.93031C86.314 2.21081 86.8242 1.32125 87.3213 0.248535M85.9608 7.28657H87.0335C87.0335 7.73135 87.0335 8.18921 87.0074 8.68632C86.9943 9.17035 86.9681 9.62822 86.942 10.0599H85.6469C85.8169 8.9218 85.9216 7.99299 85.9608 7.29965M85.6338 5.52052H89.8461L90.0554 6.76329H85.6338V5.52052ZM84.1294 7.94066H82.8081V9.00029H84.1294V7.94066ZM82.4549 0.392435L84.1424 0.366272C84.234 0.941873 84.3256 1.54364 84.391 2.15848H82.7558C82.6904 1.54364 82.5857 0.941873 82.4418 0.379354M81.5915 5.02341H85.3067V6.12228H81.5915V5.02341ZM81.5915 3.2312H85.3067V4.34315H81.5915V3.2312ZM81.5522 6.84178H85.346V10.0861H81.5522V6.84178ZM81.0551 1.30816H85.8431V2.55094H81.0551V1.30816ZM80.0871 5.83448C79.9301 5.32429 79.7731 4.89259 79.6161 4.53938L80.8589 4.29082C81.0159 4.69636 81.1598 5.14114 81.3168 5.62517C81.4737 6.1092 81.5784 6.5409 81.6438 6.92027L80.388 7.20808C80.3487 6.81562 80.2441 6.35776 80.1002 5.84756M79.5638 7.31273H80.7804C80.8589 7.70519 80.9505 8.18921 81.0551 8.73865C81.1467 9.28809 81.2252 9.73287 81.2644 10.0861H80.0217C79.9693 9.39274 79.8124 8.47701 79.5638 7.32581M78.0201 8.71249C78.0201 8.21538 77.994 7.75751 77.9547 7.32581H79.1713C79.1975 7.75751 79.2237 8.21538 79.2498 8.69941C79.276 9.18343 79.3022 9.65438 79.3283 10.0992H78.0332C78.0332 9.66746 78.0332 9.2096 78.0332 8.71249M86.9812 17.3596C87.5568 17.3203 87.9362 17.1764 88.1062 16.941C88.2763 16.7055 88.3679 16.3261 88.3679 15.8028L89.1135 16.313H76.8559L77.2091 12.7417H87.7138V11.9829H77.0783V10.6878H89.833V14.0891H78.164L79.2629 13.0426L79.0536 15.6459L78.164 14.8217H90.5264V15.6066C90.5264 16.6139 90.3302 17.3727 89.9508 17.8959C89.5714 18.4192 88.9173 18.7593 88.0147 18.9163C87.112 19.0733 85.8431 19.0602 84.2079 18.8902V17.2026C85.4768 17.3596 86.3925 17.4119 86.9681 17.3727M78.1117 4.06843C78.635 3.3751 79.0929 2.60327 79.4984 1.75295L80.9897 2.10616C80.5319 2.93031 80.0347 3.67598 79.4984 4.35623C78.962 5.03649 78.4126 5.5336 77.8501 5.88681H76.398C77.0128 5.37662 77.5884 4.77485 78.1117 4.08151M76.2803 2.99572H79.6292L78.5957 4.19925H76.2803V2.99572ZM77.8239 0.313944L79.433 0.667154C79.1975 1.17735 78.8705 1.64829 78.4518 2.09308C78.0332 2.53786 77.5754 2.87799 77.0783 3.10038L76.2803 2.99572C76.7905 2.35471 77.3006 1.45206 77.8239 0.313944ZM75.9009 5.57285H80.3225L80.5319 6.81562H75.9009V5.57285ZM76.1756 8.72557C76.2803 8.18921 76.3588 7.73135 76.398 7.33889H77.5361C77.51 7.78368 77.4707 8.25462 77.4184 8.7779C77.3661 9.28809 77.3137 9.73287 77.2483 10.1122H75.8093C75.9532 9.73287 76.071 9.26192 76.1756 8.72557ZM73.8732 3.21811C73.3107 2.78641 72.8136 2.42012 72.3557 2.11924L73.6377 0.484008C74.0825 0.758727 74.5665 1.12502 75.116 1.58288C75.6654 2.04075 76.1364 2.47245 76.555 2.85182L75.3122 4.43472C74.9198 4.05535 74.4357 3.63673 73.8732 3.20503M73.1668 14.6778C73.5069 13.1996 73.7685 11.8129 73.9255 10.5178L75.9271 10.9364C75.7832 12.1792 75.5608 13.5528 75.2337 15.0833C74.9067 16.6139 74.5796 17.909 74.2526 18.9817L72.081 18.5239C72.4473 17.4381 72.8136 16.1561 73.1537 14.6778M73.52 7.99299C72.9575 7.56129 72.4342 7.18191 71.924 6.85487L73.2845 5.18039C73.7816 5.52052 74.2918 5.92605 74.8413 6.37084C75.3907 6.81562 75.8355 7.24732 76.1887 7.66594L74.9328 9.19652C74.5535 8.83022 74.0825 8.42469 73.52 7.99299Z" fill="#141414"/>
<path d="M105.466 16.1691C103.844 14.8479 102.588 13.3565 101.698 11.7082L103.373 10.6094C103.87 11.5512 104.576 12.4408 105.492 13.3042C106.408 14.1676 107.428 14.9133 108.527 15.5543C109.626 16.1953 110.699 16.627 111.745 16.8625L110.528 18.9817C108.762 18.4192 107.075 17.4773 105.453 16.1561M104.04 15.1618C105.296 14.3377 106.316 13.4089 107.101 12.3754C107.899 11.3419 108.305 10.3608 108.357 9.44507L109.246 10.2954H100.848V8.37236H110.489V9.79828C110.463 10.7533 110.018 11.8521 109.155 13.1211C108.291 14.39 107.166 15.5674 105.78 16.6401C104.393 17.7259 102.954 18.4977 101.489 18.9817L100.128 16.9017C101.489 16.5747 102.797 15.9991 104.053 15.1749M101.685 5.29813C101.973 4.72253 102.104 4.00302 102.104 3.11346V0.627909H109.351V5.16731H111.483V7.37814H109.338C108.553 7.37814 107.991 7.20807 107.65 6.86795C107.31 6.52782 107.14 5.9653 107.14 5.18039V2.70792H104.315V3.30969C104.315 4.0946 104.249 4.76177 104.105 5.31121C103.961 5.86064 103.713 6.397 103.32 6.90719C102.941 7.41738 102.392 7.90141 101.672 8.37236L100.063 6.88103C100.861 6.397 101.397 5.87373 101.685 5.29813ZM95.262 0.484009H97.7214C97.8129 1.37357 97.9045 2.34163 97.983 3.38818H95.6675C95.6021 2.47245 95.4582 1.49131 95.2489 0.484009M93.7052 8.9872H99.8406V10.8448H93.7052V8.9872ZM93.7052 5.80832H99.8406V7.66594H93.7052V5.80832ZM93.3128 12.2053H100.168V18.393H94.7649V16.5093H98.1269V14.0499H95.3666V18.38H93.3259V12.1923L93.3128 12.2053ZM92.7764 2.45937H100.783V4.48705H92.7764V2.45937Z" fill="#141414"/>
<path d="M125.978 0.379395H128.516V18.9556H125.978V0.379395ZM122.433 6.81566H132.467V9.0919H122.433V6.81566ZM116.402 0.484049H118.901C119.032 1.28204 119.136 2.2501 119.215 3.38822H116.86C116.769 2.38092 116.612 1.41286 116.402 0.484049ZM114.479 9.07882H121.399V10.9364H114.479V9.07882ZM114.479 5.87377H121.399V7.73139H114.479V5.87377ZM114.1 12.3362H121.883V18.5762H115.094V16.7186H119.764V14.2069H116.232V18.5893H114.1V12.3493V12.3362ZM113.42 2.47249H122.498V4.50017H113.42V2.45941V2.47249Z" fill="#141414"/>
<path d="M146.765 16.1691C145.143 14.8479 143.887 13.3565 142.998 11.7082L144.672 10.6094C145.169 11.5512 145.876 12.4408 146.791 13.3042C147.707 14.1676 148.727 14.9133 149.826 15.5543C150.925 16.1953 151.998 16.627 153.044 16.8625L151.828 18.9817C150.062 18.4192 148.374 17.4773 146.765 16.1561M145.352 15.1618C146.608 14.3377 147.629 13.4089 148.413 12.3754C149.211 11.3419 149.617 10.3608 149.669 9.44507L150.559 10.2954H142.16V8.37236H151.802V9.79828C151.776 10.7533 151.331 11.8521 150.467 13.1211C149.604 14.39 148.479 15.5674 147.092 16.6401C145.706 17.7259 144.267 18.4977 142.801 18.9817L141.441 16.9017C142.801 16.5747 144.11 15.9991 145.365 15.1749M142.998 5.29813C143.272 4.72253 143.416 4.00302 143.416 3.11346V0.627909H150.664V5.16731H152.796V7.37814H150.65C149.866 7.37814 149.303 7.20807 148.963 6.86795C148.623 6.52782 148.453 5.9653 148.453 5.18039V2.70792H145.627V3.30969C145.627 4.0946 145.562 4.76177 145.418 5.31121C145.274 5.86064 145.025 6.397 144.633 6.90719C144.253 7.41738 143.704 7.90141 142.985 8.37236L141.375 6.88103C142.173 6.397 142.71 5.87373 142.998 5.29813ZM136.561 0.484009H139.021C139.112 1.37357 139.204 2.34163 139.282 3.38818H136.967C136.901 2.47245 136.758 1.49131 136.548 0.484009M135.005 8.9872H141.14V10.8448H135.005V8.9872ZM135.005 5.80832H141.14V7.66594H135.005V5.80832ZM134.612 12.2053H141.467V18.393H136.051V16.5093H139.413V14.0499H136.64V18.38H134.599V12.1923L134.612 12.2053ZM134.076 2.45937H142.082V4.48705H134.076V2.45937Z" fill="#141414"/>
<path d="M167.264 0.379395H169.802V18.9556H167.264V0.379395ZM163.719 6.81566H173.753V9.0919H163.719V6.81566ZM157.688 0.484049H160.187C160.318 1.28204 160.423 2.2501 160.501 3.38822H158.146C158.055 2.38092 157.898 1.41286 157.688 0.484049ZM155.765 9.07882H162.686V10.9364H155.765V9.07882ZM155.765 5.87377H162.686V7.73139H155.765V5.87377ZM155.399 12.3362H163.183V18.5762H156.393V16.7186H161.064V14.2069H157.531V18.5893H155.412V12.3493L155.399 12.3362ZM154.719 2.47249H163.798V4.50017H154.719V2.45941V2.47249Z" fill="#141414"/>
<path d="M189.883 6.22693C188.875 4.94491 187.921 3.91145 187.018 3.11346L188.954 1.89685C189.83 2.70792 190.785 3.7283 191.819 4.94491C192.852 6.16153 193.69 7.24732 194.318 8.18921L192.316 9.73287C191.701 8.67324 190.877 7.49587 189.87 6.21385M178.567 16.5485H190.955V18.7332H178.567V16.5485ZM177.363 10.3346H192.146V18.7332H189.569V12.5585H179.954V18.7332H177.377V10.3477L177.363 10.3346ZM179.43 3.61057C180.398 2.38087 181.118 1.20351 181.602 0.0915527L184.218 0.994199C183.891 1.83144 183.433 2.62943 182.832 3.37509C182.243 4.12076 181.55 4.76177 180.752 5.31121C179.954 5.86064 179.103 6.26618 178.188 6.5409L176.5 6.71096C177.494 5.88681 178.462 4.85334 179.43 3.62365M191.57 6.397L192.238 8.68632H175.637V6.397H191.57Z" fill="#141414"/>
<path d="M213.378 5.78215C213.221 5.25888 213.064 4.84026 212.907 4.5263L214.15 4.25158C214.307 4.61787 214.45 5.06265 214.62 5.57285C214.777 6.08304 214.908 6.52782 215 6.92027L213.705 7.18191C213.652 6.76329 213.548 6.30543 213.391 5.78215M213.221 8.64708C213.116 8.1238 213.011 7.66594 212.907 7.29965H214.097C214.346 8.05839 214.581 8.97412 214.817 10.0599H213.469C213.404 9.6413 213.312 9.17035 213.208 8.64708M211.402 8.67324C211.376 8.17613 211.337 7.71827 211.298 7.28657H212.488C212.632 8.68632 212.711 9.61513 212.737 10.0468H211.455C211.442 9.61513 211.415 9.15727 211.389 8.66016M211.455 3.98994C211.978 3.28352 212.462 2.51169 212.907 1.67446L214.49 2.04075C214.019 2.82566 213.495 3.55824 212.907 4.26466C212.318 4.958 211.756 5.48127 211.206 5.8214H209.767C210.369 5.31121 210.931 4.69636 211.455 3.98994ZM209.623 2.93031H212.946L211.913 4.13384H209.623V2.93031ZM211.167 0.248535L212.802 0.601745C212.554 1.11194 212.227 1.58288 211.808 2.02767C211.389 2.47245 210.931 2.81258 210.434 3.03497L209.636 2.93031C210.173 2.21081 210.683 1.32125 211.18 0.248535M209.819 7.28657H210.892C210.892 7.73135 210.892 8.18921 210.866 8.68632C210.853 9.17035 210.827 9.62822 210.801 10.0599H209.505C209.676 8.9218 209.78 7.99299 209.819 7.29965M209.492 5.52052H213.705L213.914 6.76329H209.492V5.52052ZM207.988 7.94066H206.667V9.00029H207.988V7.94066ZM206.314 0.392435L208.001 0.366272C208.093 0.941873 208.184 1.54364 208.25 2.15848H206.614C206.549 1.54364 206.444 0.941873 206.3 0.379354M205.45 5.02341H209.165V6.12228H205.45V5.02341ZM205.45 3.2312H209.165V4.34315H205.45V3.2312ZM205.411 6.84178H209.205V10.0861H205.411V6.84178ZM204.914 1.30816H209.702V2.55094H204.914V1.30816ZM203.946 5.83448C203.789 5.32429 203.632 4.89259 203.475 4.53938L204.718 4.29082C204.875 4.69636 205.018 5.14114 205.175 5.62517C205.332 6.1092 205.437 6.5409 205.502 6.92027L204.247 7.20808C204.207 6.81562 204.103 6.35776 203.959 5.84756M203.422 7.31273H204.639C204.718 7.70519 204.809 8.18921 204.914 8.73865C205.005 9.28809 205.084 9.73287 205.123 10.0861H203.88C203.828 9.39274 203.671 8.47701 203.422 7.32581M201.879 8.71249C201.879 8.21538 201.853 7.75751 201.813 7.32581H203.03C203.056 7.75751 203.082 8.21538 203.108 8.69941C203.135 9.18343 203.161 9.65438 203.187 10.0992H201.892C201.892 9.66746 201.892 9.2096 201.892 8.71249M210.84 17.3596C211.415 17.3203 211.795 17.1764 211.965 16.941C212.135 16.7055 212.227 16.3261 212.227 15.8028L212.972 16.313H200.715L201.068 12.7417H211.572V11.9829H200.937V10.6878H213.692V14.0891H202.023L203.122 13.0426L202.912 15.6459L202.023 14.8217H214.385V15.6066C214.385 16.6139 214.189 17.3727 213.809 17.8959C213.43 18.4192 212.776 18.7593 211.873 18.9163C210.971 19.0733 209.702 19.0602 208.067 18.8902V17.2026C209.335 17.3596 210.251 17.4119 210.84 17.3727M201.983 4.06843C202.507 3.3751 202.965 2.60327 203.37 1.75295L204.861 2.10616C204.404 2.93031 203.906 3.67598 203.37 4.35623C202.834 5.03649 202.284 5.5336 201.722 5.88681H200.27C200.885 5.37662 201.46 4.77485 201.983 4.08151M200.152 2.99572H203.501L202.467 4.19925H200.152V2.99572ZM201.696 0.313944L203.305 0.667154C203.069 1.17735 202.742 1.64829 202.324 2.09308C201.905 2.53786 201.447 2.87799 200.95 3.10038L200.152 2.99572C200.662 2.35471 201.172 1.45206 201.696 0.313944ZM199.773 5.57285H204.194L204.404 6.81562H199.786V5.57285H199.773ZM200.047 8.72557C200.152 8.18921 200.23 7.73135 200.27 7.33889H201.408C201.382 7.78368 201.342 8.25462 201.29 8.7779C201.238 9.28809 201.185 9.73287 201.12 10.1122H199.681C199.825 9.73287 199.943 9.26192 200.047 8.72557ZM197.745 3.21811C197.182 2.78641 196.685 2.42012 196.227 2.11924L197.509 0.484008C197.954 0.758727 198.438 1.12502 198.988 1.58288C199.537 2.04075 200.008 2.47245 200.427 2.85182L199.184 4.43472C198.791 4.05535 198.307 3.63673 197.745 3.20503M197.039 14.6778C197.379 13.1996 197.64 11.8129 197.797 10.5178L199.799 10.9364C199.655 12.1792 199.432 13.5528 199.105 15.0833C198.778 16.6139 198.451 17.909 198.124 18.9817L195.953 18.5239C196.319 17.4381 196.685 16.1561 197.025 14.6778M197.392 7.99299C196.829 7.56129 196.306 7.18191 195.796 6.85487L197.156 5.18039C197.653 5.52052 198.177 5.92605 198.713 6.37084C199.249 6.81562 199.707 7.24732 200.06 7.66594L198.805 9.19652C198.425 8.83022 197.954 8.42469 197.392 7.99299Z" fill="#141414"/>
<path d="M82.8603 28.5053C82.4025 27.9167 81.9708 27.4457 81.5521 27.0925L82.4417 26.53C82.8472 26.8963 83.2789 27.3672 83.7499 27.9167C84.2208 28.4661 84.6002 28.9632 84.888 29.3949L83.9723 30.1013C83.6845 29.6173 83.3182 29.0809 82.8603 28.4923M77.7061 33.2017H83.3574V34.1959H77.7061V33.2017ZM77.1566 30.363H83.8938V34.1959H82.7164V31.3834H78.3209V34.1959H77.1436V30.363H77.1566ZM78.0985 27.3018C78.5433 26.7393 78.8704 26.2029 79.0927 25.6927L80.2832 26.1114C80.1262 26.4907 79.9169 26.857 79.6553 27.1972C79.3805 27.5373 79.0666 27.8251 78.7003 28.0736C78.334 28.3222 77.9415 28.5053 77.536 28.6362L76.7642 28.7147C77.222 28.3353 77.6668 27.8643 78.0985 27.3018ZM83.6321 28.5708L83.933 29.6173H76.3586V28.5708H83.6321Z" fill="#141414"/>
<path d="M94.0454 28.3091C93.98 28.0737 93.9015 27.8774 93.8361 27.7335L94.3986 27.6158C94.464 27.7859 94.5425 27.9821 94.6079 28.2176C94.6864 28.453 94.7387 28.6493 94.7779 28.8324L94.1893 28.9501C94.1631 28.767 94.1108 28.5446 94.0454 28.3091ZM93.9669 29.6173C93.9146 29.3818 93.8753 29.1725 93.823 29.0025H94.3724C94.4902 29.3426 94.5948 29.7743 94.6995 30.2583H94.0846C94.0584 30.0752 94.0192 29.8528 93.9669 29.6173ZM93.1427 29.6304C93.1296 29.408 93.1166 29.1987 93.0904 29.0025H93.6398C93.7052 29.6435 93.7445 30.0621 93.7576 30.2583H93.1689C93.1689 30.0621 93.1558 29.8528 93.1427 29.6304ZM93.1689 27.4981C93.4044 27.171 93.6268 26.8178 93.823 26.4384L94.5425 26.6085C94.3332 26.9617 94.0846 27.3018 93.823 27.6158C93.5613 27.9298 93.2997 28.1652 93.0511 28.3222H92.3971C92.6718 28.0867 92.9334 27.812 93.1689 27.485M92.3317 27.001H93.8491L93.3782 27.5504H92.3317V27.001ZM93.0381 25.7713L93.7837 25.9282C93.666 26.1637 93.5221 26.373 93.3259 26.5823C93.1296 26.7786 92.9203 26.9355 92.6979 27.0402L92.3317 26.9879C92.5802 26.6608 92.8157 26.2553 93.0381 25.7582M92.4232 28.9632H92.9072C92.9072 29.1595 92.9072 29.3818 92.9072 29.6042C92.9072 29.8266 92.8942 30.0359 92.8811 30.2322H92.2924C92.3709 29.7089 92.4101 29.2903 92.4363 28.9763M92.2793 28.1652H94.2024L94.2939 28.7278H92.2793V28.1652ZM91.586 29.2641H90.9842V29.7481H91.586V29.2641ZM90.8272 25.8236H91.5991C91.6383 26.0852 91.6776 26.3469 91.7168 26.6347H90.9711C90.945 26.3469 90.8926 26.0852 90.8272 25.8236ZM90.4348 27.9428H92.1354V28.44H90.4348V27.9428ZM90.4348 27.1187H92.1354V27.6289H90.4348V27.1187ZM90.4086 28.767H92.1485V30.2453H90.4086V28.767ZM90.1862 26.2422H92.3709V26.8047H90.1862V26.2422ZM89.7414 28.3091C89.676 28.0737 89.5975 27.8774 89.5191 27.7205L90.0816 27.6027C90.147 27.7859 90.2255 27.9821 90.2909 28.2045C90.3563 28.4269 90.4086 28.6231 90.4479 28.7932L89.8723 28.924C89.8461 28.7408 89.8069 28.5315 89.7414 28.2961M89.4929 28.9632H90.0554C90.0946 29.1464 90.1339 29.3557 90.1731 29.6173C90.2124 29.8659 90.2516 30.0752 90.2647 30.2322H89.7022C89.676 29.9182 89.6106 29.4996 89.4929 28.9763M88.7865 29.6042C88.7865 29.3818 88.7734 29.1725 88.7472 28.9763H89.2967C89.3097 29.1725 89.3228 29.3818 89.3359 29.6042C89.3359 29.8266 89.3621 30.0359 89.3752 30.2453H88.7865C88.7865 30.049 88.7865 29.8397 88.7865 29.6173M92.868 33.568C93.1296 33.555 93.2997 33.4895 93.3782 33.3849C93.4567 33.2802 93.4959 33.1102 93.4959 32.8616L93.8361 33.0971H88.237L88.394 31.4749H93.182V31.1217H88.3286V30.5331H94.15V32.0898H88.8257L89.3228 31.6058L89.2313 32.7962L88.8257 32.4168H94.464V32.77C94.464 33.2279 94.3724 33.5811 94.2024 33.8166C94.0323 34.0521 93.7314 34.209 93.3259 34.2875C92.9203 34.366 92.3317 34.3529 91.586 34.2875V33.5157C92.1616 33.5811 92.5802 33.6073 92.8418 33.5942M88.7995 27.5242C89.035 27.2103 89.2443 26.8571 89.4275 26.4646L90.1077 26.6216C89.8984 27.001 89.676 27.3411 89.4275 27.642C89.1789 27.9559 88.9304 28.1783 88.6687 28.3353H88.0016C88.2894 28.0998 88.551 27.8251 88.7865 27.5111M87.9492 27.014H89.4798L89.0089 27.5635H87.9492V27.014ZM88.6556 25.7843L89.3882 25.9413C89.2836 26.1768 89.1266 26.3861 88.9434 26.5954C88.7472 26.7916 88.5379 26.9486 88.3155 27.0533L87.9492 27.001C88.1847 26.7001 88.4202 26.2945 88.6556 25.7713M87.7792 28.1783H89.7938L89.8853 28.7408H87.7792V28.1783ZM87.8969 29.6173C87.9492 29.3688 87.9885 29.1595 88.0016 28.9894H88.5248C88.5248 29.1856 88.4987 29.408 88.4725 29.6435C88.4463 29.879 88.4202 30.0752 88.394 30.2453H87.7399C87.8053 30.0752 87.8577 29.8659 87.91 29.6173M86.8634 27.1056C86.6149 26.9094 86.3794 26.7393 86.1701 26.6085L86.7588 25.8628C86.955 25.9937 87.1774 26.1506 87.426 26.3599C87.6745 26.5693 87.8969 26.7655 88.0801 26.9355L87.5175 27.655C87.3344 27.485 87.112 27.2888 86.8634 27.0925M86.5364 32.3253C86.6934 31.645 86.8111 31.0171 86.8896 30.4284L87.8053 30.6115C87.7399 31.1741 87.6353 31.802 87.4914 32.5084C87.3475 33.2017 87.1905 33.8035 87.0466 34.2875L86.0524 34.0782C86.2224 33.5811 86.3794 32.9924 86.5364 32.3253ZM86.7065 29.2772C86.4579 29.081 86.2094 28.9109 85.9739 28.7539L86.6018 27.9952C86.8242 28.1522 87.0597 28.3353 87.3082 28.5315C87.5568 28.7408 87.7661 28.9371 87.9231 29.1202L87.3475 29.8136C87.1774 29.6435 86.955 29.4603 86.7065 29.2641" fill="#141414"/>
<path d="M101.79 33.0447C101.057 32.4429 100.482 31.7627 100.076 31.0039L100.835 30.5068C101.057 30.9385 101.384 31.3441 101.803 31.7365C102.222 32.129 102.679 32.4691 103.19 32.7569C103.687 33.0447 104.184 33.254 104.655 33.3587L104.092 34.3267C103.294 34.0651 102.522 33.6334 101.777 33.0316M101.136 32.5738C101.711 32.1944 102.169 31.7758 102.535 31.3048C102.902 30.8339 103.085 30.3891 103.111 29.9705L103.517 30.3629H99.6836V29.4864H104.079V30.1405C104.079 30.5722 103.87 31.0824 103.477 31.658C103.085 32.2336 102.575 32.77 101.934 33.2671C101.306 33.7642 100.652 34.1174 99.9714 34.3398L99.3435 33.3848C99.9715 33.2278 100.56 32.9662 101.136 32.5868M100.063 28.0867C100.194 27.825 100.259 27.498 100.259 27.0925V25.9543H103.569V28.0213H104.537V29.0286H103.556C103.203 29.0286 102.941 28.9501 102.784 28.7931C102.627 28.6361 102.549 28.3876 102.549 28.0213V26.8962H101.253V27.171C101.253 27.5242 101.227 27.8381 101.162 28.0867C101.096 28.3352 100.979 28.5838 100.809 28.8062C100.639 29.0417 100.377 29.264 100.05 29.4734L99.3174 28.7931C99.6836 28.5707 99.9322 28.3352 100.063 28.0736M97.1327 25.8759H98.2577C98.297 26.2814 98.3493 26.7262 98.3755 27.1971H97.3158C97.2766 26.7785 97.2243 26.3337 97.1327 25.8759ZM96.4263 29.7612H99.2258V30.6115H96.4263V29.7612ZM96.4263 28.3091H99.2258V29.1594H96.4263V28.3091ZM96.2431 31.2263H99.3697V34.052H96.8972V33.2017H98.4278V32.0766H97.1719V34.052H96.2431V31.2263ZM95.9946 26.7785H99.6444V27.7073H95.9946V26.7785Z" fill="#141414"/>
<path d="M111.627 25.8366H112.792V34.3136H111.627V25.8366ZM110.005 28.78H114.584V29.8135H110.005V28.78ZM107.258 25.8889H108.396C108.462 26.2552 108.501 26.7 108.54 27.2102H107.467C107.428 26.7523 107.35 26.3076 107.258 25.8889ZM106.381 29.8004H109.534V30.6507H106.381V29.8004ZM106.381 28.3352H109.534V29.1856H106.381V28.3352ZM106.211 31.2787H109.757V34.1174H106.656V33.2671H108.789V32.1159H107.179V34.1174H106.211V31.2787ZM105.897 26.7785H110.044V27.7073H105.897V26.7785Z" fill="#141414"/>
<path d="M122.276 32.2206C122.498 32.0113 122.682 31.8019 122.825 31.5796L123.728 32.0898C123.27 32.6523 122.734 32.9401 122.119 32.9532L121.622 32.7308C121.844 32.5869 122.054 32.4168 122.276 32.2206ZM121.439 28.126H122.394V30.9255H121.439V28.126ZM122.184 33.8427C121.622 33.568 121.177 33.2279 120.863 32.7962C120.549 32.3776 120.327 31.9066 120.209 31.3964H121.138C121.243 31.7496 121.426 32.0767 121.714 32.3645C122.001 32.6523 122.368 32.8877 122.825 33.0578C123.283 33.2279 123.82 33.3064 124.435 33.3064L124.251 34.2744C123.44 34.2483 122.747 34.1044 122.171 33.8296M118.979 28.1129H119.934V30.9124H118.979V28.1129ZM118.391 31.1086H119.346V33.8558H118.391V31.1086ZM117.776 29.1856H123.715V29.9836H117.776V29.1856ZM119.097 33.1232C119.725 33.0578 120.261 32.9924 120.719 32.9008V33.8427C120.261 33.9212 119.738 33.9997 119.136 34.0651C118.535 34.1305 117.972 34.1698 117.449 34.1828L117.357 33.2279C117.894 33.2279 118.482 33.1886 119.11 33.1232M116.939 30.7031H124.199V31.5665H116.939V30.7031ZM116.311 31.3833C116.455 30.4807 116.533 29.3687 116.533 28.0736V26.059H123.898V28.4661H117.096V27.655H122.865V27.0009H117.567V28.0998C117.567 29.4865 117.488 30.6769 117.318 31.6711C117.148 32.6784 116.873 33.5549 116.494 34.3137L115.5 33.8296C115.879 33.0971 116.154 32.286 116.298 31.3702" fill="#141414"/>
<path d="M130.518 28.3484H131.643V33.555H130.518V28.3484ZM128.752 29.9313H133.696V30.9517H128.752V29.9313ZM128.411 33.0055H134.167V34.0521H128.411V33.0055ZM126.881 30.2714L127.993 29.2379V34.3268H126.881V30.2714ZM125.913 26.8047H134.102V27.8382H125.913V26.8047ZM127.561 28.5969C128.124 27.7597 128.503 26.8309 128.673 25.7974L129.798 25.9413C129.563 27.1841 129.118 28.283 128.464 29.2379C127.81 30.1929 126.985 30.9386 125.978 31.488L125.494 30.4546C126.305 30.049 126.999 29.4342 127.561 28.5969Z" fill="#141414"/>
<path d="M139.217 25.8366H140.368C140.42 26.1767 140.473 26.6215 140.499 27.1579H139.426C139.374 26.6869 139.308 26.2421 139.217 25.8366ZM137.791 31.4095H141.873V33.4241H138.223V32.7046H140.97V32.1421H138.694V33.4372H137.791V31.4226V31.4095ZM137.071 27.825H142.644V29.7612H137.556V29.0547H141.611V28.5315H138.105V29.7612H137.071V27.825ZM135.907 30.1536H143.796V32.8616C143.796 33.2671 143.756 33.5811 143.678 33.7773C143.599 33.9866 143.416 34.1436 143.115 34.2352C142.814 34.3398 142.33 34.3529 141.689 34.2875L141.637 33.3325C141.99 33.3717 142.239 33.3848 142.396 33.3717C142.553 33.3456 142.644 33.3063 142.684 33.2148C142.723 33.1363 142.749 32.9924 142.749 32.7961V30.9909H136.967V34.3136H135.907V30.1536ZM135.619 26.4776H144.096V27.4064H135.619V26.4776Z" fill="#141414"/>
<path d="M151.658 27.6681H152.6V33.7904H151.658V27.6681ZM151.461 25.9282H152.443C152.56 26.3599 152.639 26.8701 152.691 27.4457H151.749C151.697 26.9224 151.592 26.4122 151.461 25.9282ZM150.036 33.2279H153.986V34.1698H150.036V33.2279ZM150.036 31.1871H153.712V32.1028H150.036V31.1871ZM150.036 29.1987H153.712V30.1013H150.036V29.1987ZM150.036 27.1841H153.947V28.126H150.036V27.1841ZM149.695 27.812L150.663 27.2233V34.1698H149.695V27.812ZM149.565 27.5111C149.813 26.9748 149.996 26.3991 150.101 25.7843L151.082 25.9282C151.017 26.3076 150.912 26.6477 150.781 26.9617C150.65 27.2626 150.467 27.5373 150.232 27.7727L149.852 28.7016C149.695 29.1463 149.46 29.5519 149.133 29.9051L148.623 28.8847C149.002 28.5053 149.316 28.0475 149.565 27.498M148.113 31.331L148.95 31.0955C149.094 31.488 149.211 31.9458 149.342 32.456C149.46 32.9662 149.551 33.4503 149.63 33.895L148.714 34.1828C148.597 33.2802 148.4 32.3252 148.126 31.3441M148.086 31.3441C147.812 32.0374 147.485 32.6784 147.118 33.2802L146.163 33.2409C146.556 32.5738 146.896 31.8543 147.197 31.0694C147.498 30.2845 147.694 29.578 147.799 28.9239L148.727 29.2117C148.583 29.9312 148.374 30.6377 148.099 31.3441M148.845 32.8747L148.937 33.7381C148.021 33.895 146.961 33.9997 145.771 34.0389L145.679 33.084C146.778 33.0709 147.825 33.0055 148.845 32.8747ZM145.601 27.0532H149.224V27.9951H145.601V27.0532ZM147.694 27.3672L147.602 27.7597C147.485 28.5969 147.288 29.3949 147.014 30.1536C146.739 30.9124 146.399 31.5796 146.006 32.1421L145.313 31.3572C145.784 30.6638 146.15 29.8397 146.399 28.8716C146.647 27.9036 146.804 26.8832 146.83 25.8235L147.825 25.8759C147.799 26.4253 147.759 26.9224 147.694 27.3672Z" fill="#141414"/>
<path d="M55.2838 28.8455C55.2838 28.1652 54.8129 27.6943 54.1588 27.6943C53.4524 27.6943 52.9814 28.2699 52.9814 29.1071H51.791C51.791 27.6681 52.7198 26.6477 54.1849 26.6477C55.5847 26.6477 56.4743 27.5242 56.4743 28.7931C56.4743 30.0621 55.6239 31.0694 53.5047 32.5476H56.3042V33.5026H51.9479V32.6523C54.4466 30.5853 55.2838 29.7873 55.2838 28.8585" fill="#141414"/>
<path d="M59.8494 32.5738C60.6736 32.5738 61.2361 31.5927 61.2361 30.1667C61.2361 28.7408 60.6736 27.7597 59.8494 27.7597C59.0253 27.7597 58.4758 28.7408 58.4758 30.1667C58.4758 31.5927 59.0384 32.5738 59.8494 32.5738ZM57.2854 30.1667C57.2854 28.1129 58.3189 26.7131 59.8494 26.7131C61.38 26.7131 62.4266 28.1129 62.4266 30.1667C62.4266 32.2206 61.38 33.6204 59.8494 33.6204C58.3189 33.6204 57.2854 32.2206 57.2854 30.1667Z" fill="#141414"/>
<path d="M66.7566 28.8455C66.7566 28.1652 66.2857 27.6943 65.6316 27.6943C64.9252 27.6943 64.4542 28.2699 64.4542 29.1071H63.2638C63.2638 27.6681 64.1926 26.6477 65.6578 26.6477C67.0575 26.6477 67.9471 27.5242 67.9471 28.7931C67.9471 30.0621 67.0968 31.0694 64.9775 32.5476H67.777V33.5026H63.4208V32.6523C65.9194 30.5853 66.7566 29.7873 66.7566 28.8585" fill="#141414"/>
<path d="M72.3033 28.8455C72.3033 28.1652 71.8323 27.6943 71.1782 27.6943C70.4718 27.6943 70.0009 28.2699 70.0009 29.1071H68.8104C68.8104 27.6681 69.7262 26.6477 71.2044 26.6477C72.6042 26.6477 73.4937 27.5242 73.4937 28.7931C73.4937 30.0621 72.6434 31.0694 70.5241 32.5476H73.3237V33.5026H68.9674V32.6523C71.466 30.5853 72.3033 29.7873 72.3033 28.8585" fill="#141414"/>
</svg>
